HIERARCHY
ROOT Hips
{
	OFFSET 0.00000 0.00000 0.00000
	CHANNELS 6 Xposition Yposition Zposition Zrotation Yrotation Xrotation 
	JOINT LHipJoint
	{
		OFFSET 0 0 0
		CHANNELS 3 Zrotation Yrotation Xrotation
		JOINT LeftUpLeg
		{
			OFFSET 1.36337 -1.57426 1.11036
			CHANNELS 3 Zrotation Yrotation Xrotation
			JOINT LeftLeg
			{
				OFFSET 2.38468 -6.55187 0.00000
				CHANNELS 3 Zrotation Yrotation Xrotation
				JOINT LeftFoot
				{
					OFFSET 2.37166 -6.51609 0.00000
					CHANNELS 3 Zrotation Yrotation Xrotation
					JOINT LeftToeBase
					{
						OFFSET 0.29078 -0.79891 2.01393
						CHANNELS 3 Zrotation Yrotation Xrotation
						End Site
						{
							OFFSET 0.00000 -0.00000 1.07924
						}
					}
				}
			}
		}
	}
	JOINT RHipJoint
	{
		OFFSET 0 0 0
		CHANNELS 3 Zrotation Yrotation Xrotation
		JOINT RightUpLeg
		{
			OFFSET -1.36349 -1.57426 1.11036
			CHANNELS 3 Zrotation Yrotation Xrotation
			JOINT RightLeg
			{
				OFFSET -2.29562 -6.30717 0.00000
				CHANNELS 3 Zrotation Yrotation Xrotation
				JOINT RightFoot
				{
					OFFSET -2.40985 -6.62100 0.00000
					CHANNELS 3 Zrotation Yrotation Xrotation
					JOINT RightToeBase
					{
						OFFSET -0.23197 -0.63733 1.92232
						CHANNELS 3 Zrotation Yrotation Xrotation
						End Site
						{
							OFFSET -0.00000 -0.00000 1.01562
						}
					}
				}
			}
		}
	}
	JOINT LowerBack
	{
		OFFSET 0 0 0
		CHANNELS 3 Zrotation Yrotation Xrotation
		JOINT Spine
		{
			OFFSET -0.08565 2.03602 -0.24562
			CHANNELS 3 Zrotation Yrotation Xrotation
			JOINT Spine1
			{
				OFFSET -0.00036 2.05693 0.00216
				CHANNELS 3 Zrotation Yrotation Xrotation
				JOINT Neck
				{
					OFFSET 0 0 0
					CHANNELS 3 Zrotation Yrotation Xrotation
					JOINT Neck1
					{
						OFFSET -0.03664 1.69515 0.31789
						CHANNELS 3 Zrotation Yrotation Xrotation
						JOINT Head
						{
							OFFSET 0.00932 1.70181 -0.46013
							CHANNELS 3 Zrotation Yrotation Xrotation
							End Site
							{
								OFFSET 0.01243 1.77620 -0.19377
							}
						}
					}
				}
				JOINT LeftShoulder
				{
					OFFSET 0 0 0
					CHANNELS 3 Zrotation Yrotation Xrotation
					JOINT LeftArm
					{
						OFFSET 3.74344 0.81315 -0.36647
						CHANNELS 3 Zrotation Yrotation Xrotation
						JOINT LeftForeArm
						{
							OFFSET 4.97185 -0.00000 -0.00000
							CHANNELS 3 Zrotation Yrotation Xrotation
							JOINT LeftHand
							{
								OFFSET 3.35811 -0.00000 0.00000
								CHANNELS 3 Zrotation Yrotation Xrotation
								JOINT LeftFingerBase
								{
									OFFSET 0 0 0
									CHANNELS 3 Zrotation Yrotation Xrotation
									JOINT LeftHandIndex1
									{
										OFFSET 0.62278 -0.00000 0.00000
										CHANNELS 3 Zrotation Yrotation Xrotation
										End Site
										{
											OFFSET 0.50210 -0.00000 0.00000
										}
									}
								}
								JOINT LThumb
								{
									OFFSET 0 0 0
									CHANNELS 3 Zrotation Yrotation Xrotation
									End Site
									{
										OFFSET 0.50976 -0.00000 0.50976
									}
								}
							}
						}
					}
				}
				JOINT RightShoulder
				{
					OFFSET 0 0 0
					CHANNELS 3 Zrotation Yrotation Xrotation
					JOINT RightArm
					{
						OFFSET -3.75385 0.50666 -0.06525
						CHANNELS 3 Zrotation Yrotation Xrotation
						JOINT RightForeArm
						{
							OFFSET -4.96493 -0.00000 -0.00000
							CHANNELS 3 Zrotation Yrotation Xrotation
							JOINT RightHand
							{
								OFFSET -3.34929 -0.00000 0.00000
								CHANNELS 3 Zrotation Yrotation Xrotation
								JOINT RightFingerBase
								{
									OFFSET 0 0 0
									CHANNELS 3 Zrotation Yrotation Xrotation
									JOINT RightHandIndex1
									{
										OFFSET -0.63804 -0.00000 0.00000
										CHANNELS 3 Zrotation Yrotation Xrotation
										End Site
										{
											OFFSET -0.51441 -0.00000 0.00000
										}
									}
								}
								JOINT RThumb
								{
									OFFSET 0 0 0
									CHANNELS 3 Zrotation Yrotation Xrotation
									End Site
									{
										OFFSET -0.52226 -0.00000 0.52226
									}
								}
							}
						}
					}
				}
			}
		}
	}
}
MOTION
Frames: 12
Frame Time: 0.1
0.00 0.00 0.00 0 0 0 0 0 0 -21 0 0 0 0 0 0 0 0 0 0 0 0 0 0 21 0 0 0 0 0 0 0 0 0 0 0 0 0 0 0 0 0 0 0 0 0 0 -16 0 0 21 0 0 11 0 0 0 -8 0 0 0 0 0 0 0 0 0 0 0 0 0 0 0 0 0 0 0 0 8 0 0 0 0 0 0 0 0 0 0 0 0 0 0 0 0 0
0.00 0.00 0.00 173.3070 62.0237 -183.5640 0.0000 0.0000 0.0000 -12.8047 5.0010 -22.4414 5.0303 13.4178 40.9534 0.8476 7.5185 -21.6865 1.9865 -8.8378 -25.2892 0.0000 0.0000 0.0000 17.5722 -8.0678 -17.2194 -3.2643 -11.1111 32.6555 -1.7912 0.0285 -25.3294 -0.6377 -5.1093 14.2205 1.3264 -1.1415 16.7827 1.0266 -0.6376 7.4700 0.4331 -0.0408 -1.4585 1.0755 3.7090 -22.3759 -7.2470 8.6700 31.1632 -1.4217 3.0696 15.0460 -0.0000 0.0000 0.0000 -87.3103 -8.5878 27.7758 14.0596 -22.8199 -2.8512 -0.0000 0.0000 -8.3105 24.7773 -10.5409 -4.8266 -7.1250 0.0000 -0.0000 -1.6072 18.4005 1.0181 -0.0000 0.0000 0.0000 83.9041 6.4297 27.2804 -16.1529 25.7275 -3.7121 0.0000 -0.0000 -10.1630 -11.1104 -28.5826 5.3674 7.1250 -0.0000 -0.0000 21.6935 -57.6751 -6.9485
0.00 0.00 0.00 183.5410 64.5675 -171.9710 0.0000 0.0000 0.0000 -14.6392 4.4443 -41.1649 9.0434 16.8356 56.2400 1.3508 -2.4587 -21.3049 0.0029 0.3501 0.9619 0.0000 0.0000 0.0000 7.8171 -9.4580 -12.8339 -7.0664 -15.3875 49.1249 -1.2978 -2.6731 -22.6313 -0.0516 1.4666 -4.0337 -0.3146 2.5085 25.5973 -0.3119 4.2331 9.3350 -1.3721 2.5280 -3.8364 0.9744 3.8626 -25.7692 -7.6465 8.7738 29.7490 -1.4952 2.9099 15.1788 -0.0000 -0.0000 0.0000 -80.0767 -10.7584 33.2273 27.3297 -38.4918 -9.7036 -0.0000 0.0000 -18.2549 26.5276 -16.7916 -8.2060 -7.1250 0.0000 -0.0000 -0.8711 11.3439 0.6828 -0.0000 -0.0000 0.0000 82.5041 21.8310 37.2174 -24.5012 35.6898 -7.9971 0.0000 -0.0000 -16.5636 -15.3395 -25.7260 6.7902 7.1250 -0.0000 -0.0000 15.6053 -55.8403 -4.2242
0.00 0.00 0.00 180.8570 68.8591 -175.1510 0.0000 0.0000 0.0000 -19.7866 8.1927 -28.4144 7.0245 15.3525 48.9668 2.5114 -1.0253 -29.7348 0.0014 -0.2380 -0.6540 0.0000 0.0000 0.0000 6.9830 -2.1849 -39.9870 -4.2737 -12.5160 37.5826 -0.1671 -2.4442 -9.0241 -0.0429 -1.3370 3.6767 -6.6163 1.8042 26.6362 -0.7415 1.7137 9.3457 2.4357 1.2142 -4.4188 -2.7493 0.9197 -26.8758 -3.7689 4.3395 28.6216 -0.1781 1.1089 14.4093 0.0000 0.0000 0.0000 -77.0735 -15.7066 36.7907 25.1865 -36.3940 -8.4003 -0.0000 0.0000 -21.6816 26.6292 -11.3457 -5.6334 -7.1250 0.0000 -0.0000 -0.3548 17.3291 0.2330 0.0000 0.0000 0.0000 83.4453 16.3680 28.8115 -27.8049 38.9360 -10.0008 0.0000 -0.0000 -17.2559 -19.2957 -25.1588 8.4659 7.1250 -0.0000 -0.0000 11.2375 -56.0825 -3.0824
0.00 0.00 0.00 162.4160 64.9731 -188.7690 0.0000 0.0000 0.0000 -15.2863 8.6802 -13.7181 4.8362 13.1970 40.1103 2.3018 0.8679 -29.0389 0.5949 -4.9380 -13.7318 0.0000 0.0000 0.0000 6.1337 -5.1939 -48.6677 -7.6277 -15.8385 51.2103 -0.4750 3.0845 -12.3274 -0.3227 -3.6512 10.0973 -5.4565 -1.3453 29.3359 -0.4324 -2.4259 7.2301 3.4510 -0.7002 -7.7505 -11.4358 -9.7096 -25.7033 5.4558 -10.6606 26.0627 1.9368 -4.9414 14.1436 -0.0000 0.0000 0.0000 -85.1075 -10.1415 41.3992 23.4850 -34.6149 -7.4120 -0.0000 0.0000 -20.8393 27.6003 -11.8184 -6.1116 -7.1250 0.0000 -0.0000 0.2867 16.6948 -0.1923 -0.0000 0.0000 0.0000 82.4317 17.3148 25.1601 -34.2753 44.2877 -14.3049 0.0000 -0.0000 -24.1298 -20.1681 -24.6178 8.6989 7.1250 -0.0000 -0.0000 10.0776 -55.7146 -2.6692
0.00 0.00 0.00 165.8770 64.4319 -186.3580 0.0000 0.0000 0.0000 -12.9628 -1.7639 -45.5238 4.9157 13.2883 40.4573 0.0162 4.4189 -6.8845 0.4284 -4.2005 -11.6415 0.0000 0.0000 0.0000 14.7771 -2.9840 -33.2234 -8.0241 -16.1370 52.6495 -2.5273 3.3194 -29.2731 -0.7524 -5.5404 15.4564 4.8250 -0.8104 31.8761 -0.0190 1.9014 10.2757 -3.5398 1.5740 -5.6037 8.4907 12.5331 -22.1827 -15.8694 21.5858 27.1953 -3.2165 8.2507 16.4184 0.0000 0.0000 0.0000 -82.8302 -5.7660 33.1901 23.8195 -34.9728 -7.6029 -0.0000 0.0000 -18.6197 26.0223 -11.3221 -5.4750 -7.1250 0.0000 -0.0000 -0.7772 17.4197 0.5089 0.0000 0.0000 0.0000 78.5614 18.5726 21.4424 -31.9292 42.4906 -12.6930 0.0000 -0.0000 -21.9782 -18.9227 -27.4608 8.9835 7.1250 -0.0000 -0.0000 12.8355 -58.3009 -4.2211
0.00 0.00 0.00 190.6840 74.0902 -163.6090 0.0000 0.0000 0.0000 -16.2892 2.1213 -39.1234 9.1676 16.9144 56.6679 1.9282 -5.7097 -25.0656 0.1951 2.8445 7.8461 0.0000 0.0000 0.0000 4.4023 -3.2343 -24.7287 -12.3433 -18.5320 67.0728 -0.0293 -5.1865 -8.2728 -0.2330 -3.1065 8.5753 -3.7751 3.5936 30.9806 -0.5884 4.7859 10.8010 -0.1560 2.8223 -4.8885 -6.9079 -1.9496 -28.9825 5.5097 -1.1911 28.7943 3.2499 -0.3565 14.9463 0.0000 -0.0000 0.0000 -77.4083 -14.1029 32.2454 27.5010 -38.6528 -9.8104 -0.0000 0.0000 -23.5550 27.4531 -13.6473 -6.9884 -7.1250 0.0000 -0.0000 0.0358 14.6775 -0.0256 0.0000 -0.0000 0.0000 78.0236 16.8275 23.8098 -28.9048 39.9360 -10.6996 0.0000 -0.0000 -19.8362 -19.5895 -24.9851 8.5485 7.1250 -0.0000 -0.0000 10.8490 -55.9679 -2.9438
0.00 0.00 0.00 131.0190 75.2998 -219.0630 0.0000 0.0000 0.0000 -21.3970 18.8790 -7.3515 7.5629 15.7882 50.9727 -0.1188 -8.0597 -2.6746 0.9485 -6.2024 -17.3728 0.0000 0.0000 0.0000 14.5344 -11.8005 -56.9785 -10.1331 -17.4840 59.9322 -1.2800 1.0238 -21.0821 -0.1086 -2.1250 5.8512 6.7922 -2.9018 25.3756 3.9138 -0.9199 7.2370 0.6511 -0.1446 -6.1160 -12.9291 -11.2447 -23.5102 9.9396 -13.9179 25.0138 3.3219 -5.9023 14.1527 0.0000 -0.0000 0.0000 -86.4067 -1.5465 45.9873 21.5591 -32.4751 -6.3475 -0.0000 0.0000 -20.4826 26.7522 -14.2240 -7.0608 -7.1250 0.0000 -0.0000 -0.4894 14.1326 0.3551 0.0000 -0.0000 0.0000 72.1666 12.8235 3.9211 -16.9207 26.7531 -4.0516 0.0000 -0.0000 -13.6004 -19.0808 -21.5226 7.2323 7.1250 -0.0000 -0.0000 9.9191 -52.3612 -1.8118
0.00 0.00 0.00 109.6560 78.3695 -241.1860 0.0000 0.0000 0.0000 -18.0874 15.9949 -18.8312 13.0511 18.8005 69.2840 -0.1156 -6.6844 -0.6633 1.2561 -7.1052 -20.0273 0.0000 0.0000 0.0000 14.2830 -7.6292 -49.0548 -9.3103 -17.0033 57.1573 -1.7733 2.9015 -24.4283 -0.9053 -6.0635 16.9688 7.8977 -3.2133 26.7623 4.0544 -0.8699 7.3256 0.2031 -0.1356 -6.7069 -12.0991 -10.5130 -23.6845 9.7463 -13.0890 24.6789 3.2905 -5.5003 13.8416 -0.0000 -0.0000 0.0000 -86.1823 -1.9666 42.3803 20.1260 -30.7938 -5.5957 -0.0000 0.0000 -20.3999 29.1784 -16.7216 -9.1271 -7.1250 0.0000 -0.0000 0.8829 10.9938 -0.6984 -0.0000 -0.0000 0.0000 72.8617 12.2004 5.0638 -17.8517 27.9669 -4.4795 0.0000 -0.0000 -14.7236 -20.0794 -23.0293 8.1381 7.1250 -0.0000 -0.0000 9.4951 -54.0807 -2.1340
0.00 0.00 0.00 7.6313 44.6118 -348.8890 0.0000 0.0000 0.0000 -6.1453 -7.1202 -37.6186 3.7638 11.8393 35.1660 -0.1277 -6.4481 1.0144 2.0994 -9.0700 -26.0147 0.0000 0.0000 0.0000 8.2134 10.5225 -19.1122 -6.7028 -15.0764 47.7411 -0.3649 20.9677 -17.5009 -1.4967 -7.7279 21.8905 6.3185 -1.4852 29.4407 2.4768 0.5402 8.7335 -1.0811 0.4219 -6.3254 -7.7049 -4.0749 -27.9653 5.4210 -4.1107 27.0349 2.6748 -1.7471 14.2189 0.0000 -0.0000 0.0000 -83.8390 -5.1962 40.0145 29.9925 -40.8869 -11.4047 -0.0000 0.0000 -24.1673 30.6407 -14.7300 -8.5653 -7.1250 0.0000 -0.0000 2.0788 12.9966 -1.5591 0.0000 -0.0000 0.0000 77.8602 11.5220 12.7852 -24.3811 35.5647 -7.9271 0.0000 -0.0000 -21.2873 -21.1433 -23.2587 8.6829 7.1250 -0.0000 -0.0000 8.4951 -54.5215 -1.9981
0.00 0.00 0.00 -2.2904 18.1153 -356.4920 0.0000 0.0000 0.0000 -19.3495 4.8213 -25.0489 8.0581 16.1618 52.7717 2.9157 -7.4746 -30.9309 0.0449 1.3677 3.7612 0.0000 0.0000 0.0000 10.2994 7.4962 -41.9656 -2.3056 -9.4755 27.2943 -0.2028 -3.8990 8.0522 -0.2997 3.5202 -9.7307 -5.5230 1.5005 30.6469 -1.4336 0.3185 9.2000 1.4656 0.2190 -6.3954 9.7223 14.9099 -19.9932 -16.0078 22.7899 22.6767 -3.2082 8.9991 14.2589 -0.0000 0.0000 0.0000 -82.7136 -19.6871 26.2433 33.3573 -43.6029 -13.6679 -0.0000 0.0000 -33.1462 31.7875 -10.3431 -6.3490 -7.1250 0.0000 -0.0000 3.3330 17.8738 -2.1528 -0.0000 0.0000 0.0000 87.2595 1.8673 29.5301 -33.8473 43.9713 -14.0069 0.0000 -0.0000 -21.3347 -20.6544 -25.0558 9.0703 7.1250 -0.0000 -0.0000 9.7669 -56.2597 -2.7152
0.00 0.00 0.00 -5.3801 17.4140 -350.1250 0.0000 0.0000 0.0000 -10.6763 4.1858 -57.4718 10.2616 17.5544 60.3592 0.8710 -1.8434 -17.1095 0.7537 5.5450 15.4697 0.0000 0.0000 0.0000 10.6615 -1.4645 -9.8756 -3.7752 -11.8551 35.2213 -1.6196 11.8749 -23.0512 -0.4144 4.1322 -11.4488 -0.3724 3.8702 33.2038 -1.7772 4.7189 10.1386 -3.2602 2.3602 -5.6760 3.2350 9.3659 -25.6287 -17.8616 17.6207 22.9018 -3.9673 5.6918 14.3610 -0.0000 -0.0000 0.0000 -72.8361 -18.3860 34.0649 34.0548 -44.1253 -14.1512 -0.0000 0.0000 -26.5590 29.8114 -13.5388 -7.6397 -7.1250 0.0000 -0.0000 1.6490 14.4739 -1.1850 -0.0000 -0.0000 0.0000 78.1726 17.5485 32.8303 -33.6830 43.8485 -13.8930 0.0000 -0.0000 -22.5759 -15.3909 -23.0492 6.1514 7.1250 -0.0000 -0.0000 14.2157 -53.2309 -2.9248
